<svg version="1.1" xmlns="http://www.w3.org/2000/svg" xmlns:xlink="http://www.w3.org/1999/xlink" x="0px" y="0px"
	 viewBox="0 0 256 255" xml:space="preserve" width="51" height="50">
	<path fill="#306998" d="M123.2,0.6c-4.8,0.2-9.3,0.3-13.6,0.9c-19.4,2.6-36.2,9.6-50.8,21.3c-12.6,10.2-20.2,22.8-23,38.5
		c-1.1,5.7-1.7,11.6-1.6,17.4c0.1,11.4,0,22.7,0,34.1c0,1.2-0.3,1.5-1.5,1.5c-11.6,0-23.2-0.1-34.9,0c-10,0.1-18.5,4.3-24.7,12.2
		C1.2,133.5-2.3,142,0.2,151.5c2.2,8.1,6.6,14.6,13.2,19.2c5.2,3.7,11.1,5.8,17.3,7.2c8.4,1.8,16.9,2.7,25.5,2.7c11.4,0,22.7,0,34.1,0
		c1.2,0,1.6,0.3,1.6,1.5c0,11.7-0.1,23.4,0,35.1c0.1,10.2,4.3,18.7,12.1,24.9c4.8,4,10.3,6.4,16.5,7.7c8.2,1.7,16.5,2.5,25,2.5
		c19.2,0,37.5-3.3,54.9-11.4c14.7-6.9,26.6-17,35.3-30.9c5.8-9.1,9.4-19.1,11.2-29.8c1.4-8.5,2.1-17.1,1.9-25.7
		c-0.1-7.3,0.1-14.6-0.1-21.9c-0.1-3.2,0.9-4.3,4.2-4.2c7.7,0.2,15.4,0.1,23.1,0.1c7.9,0,15.8,0.3,23.7-0.1
		c9.1-0.5,17.4-2.7,24.8-7.8c7.9-5.6,12.8-13.1,14.6-22.7c1.3-6.6,1.3-13.2-0.1-19.8c-1.7-7.6-5.4-14.3-11-19.8
		c-6-5.9-13.2-9.7-21.4-11.6c-8.5-2-17.1-3-25.8-3.1c-11.3-0.1-22.6,0-33.9,0c-1.3,0-1.7-0.3-1.7-1.7c0-10.8,0.2-21.7-0.1-32.5
		c-0.1-7.7-1-15.3-3.4-22.7c-5.4-16.8-15.3-31-29-42c-14.8-11.9-31.6-19.2-50.1-21.9c-5.1-0.8-10.3-0.9-15.4-1.4
		C130.2,0.6,126.7,0.6,123.2,0.6z M147.1,32.9c9.7,0,17.7,7.9,17.8,17.6c0,9.8-8,17.8-17.9,17.8c-9.6,0-17.6-8-17.6-17.6
		C129.3,41,137.4,32.9,147.1,32.9z"/>
	<path fill="#FFD43B" d="M244.4,152.5c-9.8-0.1-17.8,7.7-17.9,17.5c-0.1,9.7,7.8,17.7,17.6,17.8c9.6,0.1,17.6-7.8,17.8-17.5
		C262,160.5,254.1,152.6,244.4,152.5z"/>
	<path fill="#FFE873" d="M10.7,179.2c-9.7,0-17.8,8-17.8,17.7c0,9.6,8,17.6,17.7,17.7c9.6,0.1,17.7-8.1,17.7-17.7
		C28.4,187.2,20.4,179.2,10.7,179.2z"/>
	<path fill="#306998" d="M133.3,88.1c-12.1-0.1-24.2,0-36.3-0.1c-3.7,0-7.3,0.3-10.9,0.8c-12,1.6-22.5,6.3-30.6,15
		c-5.7,6.1-9.4,13.2-11.3,21.3c-1.1,4.6-1.4,9.3-1.4,14c-0.1,14.7-0.1,29.4,0,44.1c0,1.3-0.3,1.7-1.7,1.7
		c-10.8-0.1-21.7,0.1-32.5-0.1c-4.6-0.1-9.2-0.6-13.7-1.5c-7.2-1.6-13.6-4.9-19-10.1c-3.7-3.6-6.2-8-7.9-12.9
		c-2.6-7.7-2.4-15.3,0.6-22.7c3.3-8.2,9.1-14,17.1-18.1c5.9-3,12.2-4.4,18.7-5.2c7.9-1,15.8-1.1,23.7-1c11.2,0.1,22.4,0,33.6,0
		c1.3,0,1.7-0.3,1.7-1.7c-0.1-10.3-0.2-20.6,0-30.9c0.1-5.5,0.4-11,1.5-16.4c3.5-17,12.1-31.3,25.4-43.1c10.3-9.4,22.2-15.9,35.5-20
		c7.4-2.4,15-3.7,22.7-4.4c10.1-0.8,20.2-1.2,30.2-1.8c1.1,0,2.2,0.1,3.4,0.1c1.1,0.2,1.6,0.7,1.5,1.9c-0.1,8.1,0,16.2,0,24.3
		c0,1.4-0.5,1.6-1.7,1.6c-15.3,0-30.6-0.1-45.9,0c-4.4,0-8.8,0.3-13.2,0.9c-11.4,1.5-21.5,5.9-29.9,13.6c-7.2,6.6-11.8,14.9-14,24.6
		c-0.9,4.1-1.1,8.4-1.1,12.6C133.6,81.2,133.3,84.6,133.3,88.1z"/>
	<path fill="#FFD43B" d="M255.8,102.4c-3.7,1.1-7.5,2-11.4,2.6c-8.1,1.2-16.1,1.5-24.2,1.6c-11.7,0.1-23.4,0-35.2,0
		c-1.3,0-1.6,0.3-1.6,1.6c0,10.8,0.1,21.7-0.1,32.5c-0.1,5.5-0.5,11-1.7,16.3c-4.5,20.2-14.4,37.5-30.1,51.6
		c-10.2,9.5-22.1,16.1-35.3,20.3c-7.2,2.3-14.7,3.5-22.2,4.3c-10.1,1-20.3,1.2-30.4,1.8c-1.3,0.1-1.7,0.4-1.6,1.7
		c0.1,7.9,0.1,15.7,0.1,23.6c0,1.2,0.4,1.5,1.5,1.5c11.2,0,22.5-0.1,33.7,0c12.2,0.1,24.3-0.2,36.3,1.2c10.3,1.2,20.2,3.7,29.5,8
		c8.9,4.1,16.7,9.7,23.1,17.1c7.8,8.9,13,18.9,15.4,30.3c1.6,7.5,1.9,15.1,2,22.8c0.1,8.4-0.1,16.8,0.1,25.2c0.1,4.3-0.8,5.1-5.1,5.2
		c-21.1,0.1-42.2,0.1-63.3,0c-3.4,0-6.9-0.3-10.3-0.6c-10-0.7-19.5-2.7-28.8-5.9c-11.2-3.8-21.7-9.1-31.1-16.1
		c-14.3-10.6-25.6-24-33.4-40.5c-5.5-11.4-9.2-23.5-10.6-36.2c-1.4-12.4-1.3-24.7,0.3-37.1c2.2-15.8,7.2-30.7,15.4-44.4
		c9.3-15.7,21.9-28.3,37.3-38.2c11.8-7.7,24.9-13.2,38.7-16.8c9.7-2.6,19.6-4,29.6-4.8c1.1-0.1,1.5-0.5,1.5-1.6
		c-0.1-9.1-0.1-18.3,0-27.4c0-1.2-0.3-1.5-1.5-1.5c-11.3,0.1-22.6,0.1-33.9,0.1c-7.9,0-15.8-0.3-23.7,0.1c-8.4,0.4-16.7,1.6-24.8,3.7
		c-7.7,2.1-15.1,5.2-22.1,9.1c-9.7,5.5-18.2,12.6-25.4,20.7c-1.3,1.4-2.4,2.8-3.6,4.2C128.2,90.5,130.2,89.7,133.3,88.1z"/>
</svg>
